<?xml version="1.0" encoding="utf-8"?>
<!-- Generator: Adobe Illustrator 25.0.0, SVG Export Plug-In . SVG Version: 6.00 Build 0)  -->
<svg version="1.1" id="Layer_1" xmlns="http://www.w3.org/2000/svg" xmlns:xlink="http://www.w3.org/1999/xlink" x="0px" y="0px"
	 viewBox="0 0 150 70" style="enable-background:new 0 0 150 70;" xml:space="preserve">
<style type="text/css">
	.st0{fill:#FFFFFF;}
</style>
<path class="st0" d="M21.77,41.54c-2.7,10.01-2.29,22.18-17.29,24.31c0.59-3.22,1.03-5.98,1.61-8.72
	c2.81-13.27,5.6-26.55,8.53-39.79c1.78-8.04,7.74-12.89,15.8-12.94C42.19,4.32,53.97,4.32,65.75,4.4
	C73.73,4.45,77.8,9.35,76.2,17.11c-3.31,16.1-6.78,32.16-10.16,48.15c-6.63-0.09-10.23-3.14-9.94-8.96
	c0.24-4.83,1.43-9.6,2.25-14.76C46.12,41.54,34.07,41.54,21.77,41.54z M24.42,28.54c12.76,0,24.79,0,37.1,0
	c0.79-4.01,1.53-7.77,2.32-11.77c-12.65,0-24.55,0-36.72,0C26.24,20.59,25.4,24.24,24.42,28.54z"/>
<path class="st0" d="M74.62,65.51c2.65-12.41,5.14-24.1,7.61-35.71c6.56,0.03,9.92,2.95,9.62,8.91c-0.24,4.77-1.36,9.5-2.13,14.58
	c11.92,0,23.7,0,36.2,0c2.52-11.73,5.09-23.67,7.8-36.27c-12.2,0-23.81,0.08-35.43-0.03c-7.75-0.08-11.01-3.7-10.61-12.16
	c3.1,0,6.25,0,9.4,0c12.73,0,25.46-0.05,38.19,0.02c8.15,0.04,11.97,4.39,10.43,12.43c-2.36,12.3-4.94,24.57-7.81,36.76
	c-1.47,6.25-5.81,11.08-12.23,11.29C108.89,65.88,92.08,65.51,74.62,65.51z"/>
</svg>
