<?xml version="1.0" encoding="utf-8"?>
<!-- Generator: Adobe Illustrator 25.0.0, SVG Export Plug-In . SVG Version: 6.00 Build 0)  -->
<svg version="1.1" id="Layer_1" xmlns="http://www.w3.org/2000/svg" xmlns:xlink="http://www.w3.org/1999/xlink" x="0px" y="0px"
	 viewBox="0 0 800 100" style="enable-background:new 0 0 800 100;" xml:space="preserve">
<style type="text/css">
	.st0{fill:#FFFFFF;}
</style>
<path class="st0" d="M261.29,79.08c-3.08-2.1-6.26-3.16-7.34-5.29c-1.27-2.49-1.02-5.93-0.85-8.93c0.17-2.92,1.07-5.79,1.77-9.28
	c-10.71,0-21.07-0.09-31.42,0.14c-1,0.02-2.42,1.86-2.83,3.11c-0.97,2.96-1.25,6.14-2.16,9.12c-1.78,5.83-5.97,9.03-12.99,9.82
	c1.45-7.04,2.84-13.88,4.28-20.71c1.59-7.57,3.24-15.13,4.85-22.7c1.64-7.72,7.13-12.25,15.06-12.29c10.56-0.05,21.12-0.07,31.68,0
	c6.97,0.05,10.79,3.86,9.54,10.65C268.1,47.73,264.73,62.64,261.29,79.08z M259.54,33.12c-10.9,0-20.89-0.07-30.88,0.11
	c-1.05,0.02-2.64,1.31-2.99,2.34c-0.86,2.58-1.15,5.35-1.79,8.72c10.79,0,21.07,0.06,31.35-0.1c0.9-0.01,2.3-1.3,2.58-2.26
	C258.59,39.31,258.9,36.56,259.54,33.12z"/>
<path class="st0" d="M353.42,66.78c11.31,0,22-0.1,32.7,0.04c7.05,0.09,10.22,3.92,9.15,11.19c-5.49,0-11.06,0.01-16.63,0
	c-9.23-0.01-18.47,0.13-27.7-0.1c-6.42-0.16-10.11-4.24-8.97-10.28c2.27-11.95,4.8-23.87,7.65-35.7c1.45-5.99,7.02-9.94,13.25-10
	c14.67-0.12,29.33-0.04,44.03-0.04c-0.55,6.39-5.84,11.05-12.74,11.16c-9.4,0.15-18.79,0.04-28.19,0.04c-1.78,0-3.56,0-5.46,0
	c-0.84,3.82-1.58,7.14-2.44,11.08c11.18,0,21.97,0,32.81,0c-0.74,6.64-6.06,11.33-12.81,11.5c-5.77,0.15-11.57,0.37-17.3-0.08
	c-4.23-0.33-6.03,1.17-6.35,5.18C354.27,62.58,353.84,64.35,353.42,66.78z"/>
<path class="st0" d="M23.78,55.85c-2.46,9.1-2.08,20.17-15.73,22.11c0.54-2.93,0.93-5.44,1.46-7.93
	c2.56-12.07,5.09-24.15,7.76-36.19c1.62-7.31,7.04-11.72,14.37-11.77C42.35,22,53.07,22,63.78,22.07
	c7.26,0.05,10.96,4.51,9.51,11.56c-3.01,14.64-6.16,29.25-9.24,43.79c-6.03-0.08-9.3-2.85-9.04-8.15c0.22-4.39,1.3-8.73,2.05-13.42
	C45.92,55.85,34.96,55.85,23.78,55.85z M26.18,44.03c11.61,0,22.54,0,33.74,0c0.72-3.65,1.39-7.07,2.11-10.7
	c-11.51,0-22.33,0-33.4,0C27.84,36.8,27.08,40.11,26.18,44.03z"/>
<path class="st0" d="M620.9,33.1c-0.87,3.95-1.57,7.15-2.43,11.09c11.2,0,22.11,0,33.16,0c-1.67,7.22-6.64,11.39-13.37,11.49
	c-7.24,0.11-14.48,0.03-22.21,0.03c-0.75,3.51-1.46,6.83-2.37,11.06c2.86,0,5.38,0,7.9,0c8.41,0,16.83-0.12,25.23,0.04
	c6.67,0.13,9.72,3.84,9.01,10.81c-1.18,0.12-2.44,0.36-3.7,0.36c-13.03,0.03-26.06,0.06-39.09,0c-8.64-0.04-12.05-4.13-10.34-12.61
	c2.18-10.81,4.51-21.59,6.95-32.35c1.38-6.08,6.56-10.89,12.46-10.98c15.14-0.24,30.28-0.08,45.5-0.08
	c-1.44,6.92-6.36,11.01-13.34,11.1c-9.23,0.11-18.47,0.03-27.71,0.03C624.78,33.1,622.99,33.1,620.9,33.1z"/>
<path class="st0" d="M272.72,77.75c2.39-11.27,4.7-22.13,6.99-32.92c6.11,0.13,9.22,2.82,8.94,8.22c-0.23,4.38-1.31,8.72-2.12,13.69
	c10.62,0,20.96,0.03,31.3-0.06c0.79-0.01,2.13-0.71,2.26-1.31c2.36-10.53,4.58-21.09,6.96-32.28c-11.52,0-22.2,0.1-32.88-0.04
	c-7.1-0.09-10.18-3.81-9.15-11.17c9.74,0,19.58,0,29.41,0c4.94,0,9.89-0.09,14.83,0.03c6.26,0.15,10.07,3.68,9.02,9.66
	c-2.2,12.45-4.88,24.84-7.95,37.11c-1.27,5.09-5.45,8.79-10.76,8.93C304.14,78.01,288.71,77.75,272.72,77.75z"/>
<path class="st0" d="M443.26,77.74c2.44-11.43,4.73-22.18,7.01-32.87c6.04,0.03,9.13,2.72,8.86,8.2c-0.22,4.39-1.25,8.74-1.96,13.41
	c10.97,0,21.82,0,33.32,0c2.32-10.79,4.69-21.79,7.18-33.38c-11.23,0-21.92,0.08-32.6-0.03c-7.13-0.07-10.14-3.4-9.76-11.19
	c2.85,0,5.75,0,8.65,0c11.72,0,23.43-0.04,35.15,0.02c7.5,0.04,11.02,4.04,9.6,11.44c-2.17,11.32-4.54,22.61-7.19,33.83
	c-1.36,5.76-5.35,10.19-11.25,10.39C474.8,78.08,459.33,77.74,443.26,77.74z"/>
<path class="st0" d="M587.02,33.1c-11.16,0-22.01,0.08-32.86-0.03c-6.72-0.07-9.64-3.6-8.96-10.82c1.18-0.12,2.43-0.34,3.69-0.34
	c13.37-0.03,26.73-0.07,40.1,0.01c7.25,0.04,10.64,3.86,9.68,11.01c-0.54,4.07-0.89,8.43-2.67,11.99
	c-2.08,4.15-5.62,7.56-8.62,11.42c8.85,5.05,2.59,13.27,2.15,20.71c-6.32,0.92-10.38-3.46-9.3-9.82c0.63-3.72,1.52-7.39,2.4-11.65
	c-10.76,0-21.13-0.09-31.48,0.14c-0.98,0.02-2.36,1.91-2.77,3.18c-0.96,2.96-1.26,6.14-2.15,9.13c-1.68,5.62-6.31,9.1-13.3,9.65
	c2.09-8.65,3.55-17.23,6.33-25.35c1.89-5.52,7.08-8,13.08-8c8.75-0.01,17.52-0.46,26.23,0.14c5.68,0.39,7.8-1.81,8.11-6.93
	C586.73,36.25,586.86,34.97,587.02,33.1z"/>
<path class="st0" d="M87.07,21.99c15.69,0,30.99-0.14,46.3,0.08c4.72,0.07,8.23,4.36,7.59,9.2c-0.69,5.19-1.42,10.62-3.55,15.3
	c-1.68,3.68-5.51,6.38-8.42,9.55c9.5,5.52,2.67,13.82,2.55,21.42c-6.35-0.3-9.52-3.07-9.22-8.34c0.25-4.38,1.32-8.72,2.07-13.38
	c-11.2,0-22.16,0-33.27,0c-2.42,9.23-2.16,20.2-16.18,22.2c2.13-9.01,3.48-17.62,6.3-25.72c1.97-5.66,7.38-8.06,13.58-8.01
	c8.74,0.07,17.49-0.29,26.21,0.13c4.96,0.24,7.38-1.25,7.47-6.29c0.03-1.43,0.53-2.85,0.96-5.03c-8.23,0-16.06,0-23.89,0
	c-3.13,0-6.27,0.06-9.4-0.02C89.56,32.91,86.6,29.46,87.07,21.99z"/>
<path class="st0" d="M209.95,22.26c-1.96,6.99-6.67,10.75-13.6,10.82c-10.71,0.11-21.42,0.09-32.12,0.13
	c-0.15,0-0.31,0.11-1.16,0.44c-2.28,10.58-4.65,21.57-7.14,33.13c11.19,0,21.87-0.08,32.55,0.03c7.4,0.07,10.72,3.89,9.6,11.12
	c-15.08,0-30.22,0.21-45.35-0.1c-6.08-0.12-9.28-4.95-8.02-11.08c2.22-10.79,4.5-21.57,6.96-32.31c1.96-8.54,7.05-12.38,15.88-12.39
	c12.69-0.01,25.37-0.01,38.06,0.01C207.04,22.06,208.46,22.19,209.95,22.26z"/>
<path class="st0" d="M684.24,33.1c-2.42,11.31-4.75,22.19-7.21,33.67c11.19,0,21.88-0.07,32.57,0.03
	c7.13,0.07,10.25,3.54,9.64,10.96c-1.65,0.08-3.39,0.24-5.12,0.24c-12.54,0.02-25.07,0.05-37.61,0
	c-8.69-0.04-12.13-4.06-10.44-12.53c2.13-10.65,4.47-21.26,6.87-31.85c1.43-6.28,6.27-11.26,12.12-11.38
	c15.28-0.32,30.58-0.11,45.94-0.11c-1.6,6.93-6.4,10.87-13.43,10.95c-9.24,0.11-18.47,0.03-27.71,0.03
	C688.08,33.1,686.29,33.1,684.24,33.1z"/>
<path class="st0" d="M791.54,33.12c-7.51,0-14.71,0-22.24,0c-2.42,11.22-4.83,22.1-7.1,33.01c-1.06,5.08-3.87,8.65-8.59,10.67
	c-1.27,0.54-2.71,0.69-5.02,1.25c3.23-15.37,6.29-29.89,9.34-44.42c-6.35-1.88-13.68,2.21-18.41-4.09c-1.31-1.74-1.35-4.44-2.2-7.5
	c8.19,0,15.37,0,22.56,0c7.41,0,14.83-0.07,22.24,0.02C788.79,22.15,791.78,25.51,791.54,33.12z"/>
<path class="st0" d="M522.35,21.87c7.32,1.36,10.07,4.89,8.8,11.3c-2.78,14.02-5.91,27.97-8.79,41.98
	c-0.58,2.83-2.23,3.02-4.31,2.18c-3.99-1.62-6.19-4.92-5.4-9C515.65,52.88,519.05,37.52,522.35,21.87z"/>
</svg>
