<?xml version="1.0" encoding="utf-8"?>
<!-- Generator: Adobe Illustrator 26.2.1, SVG Export Plug-In . SVG Version: 6.00 Build 0)  -->
<svg version="1.1" id="Layer_1" xmlns="http://www.w3.org/2000/svg" xmlns:xlink="http://www.w3.org/1999/xlink" x="0px" y="0px"
	 viewBox="0 0 15 15" style="enable-background:new 0 0 15 15;" xml:space="preserve">
<style type="text/css">
	.st0{fill:#35BB9D;}
</style>
<path class="st0" d="M12.9,0H2.1C1,0,0,1,0,2.1v10.7C0,14,1,15,2.1,15h10.7c1.2,0,2.1-1,2.1-2.1V2.1C15,1,14,0,12.9,0z M11.8,8.6h-6
	l1.7,1.7c0.4,0.4,0.4,1.1,0,1.5c-0.4,0.4-1.1,0.4-1.5,0L2.5,8.3C2.2,8,2.1,7.7,2.1,7.5c0-0.2,0-0.5,0.3-0.8l3.5-3.5
	c0.4-0.4,1.1-0.4,1.5,0s0.4,1.1,0,1.5L5.8,6.4h6c0.6,0,1.1,0.5,1.1,1.1S12.4,8.6,11.8,8.6z"/>
</svg>
